# xmcd
#
# Track frame offsets:
#	150
#	30825
#	72023
#	99993
#	141671
#	168492
#	213777
#	234092
#	301085
#
# Disc length: 4425 seconds
#
# Revision: 1
# Processed by: cddbd v1.5.2PL0 Copyright (c) Steve Scherf et al.
# Submitted via: EZCDAudioConverter 2.1.7.1
#
DISCID=67114709
DTITLE=Caravan - The World Is Yours 3/4
DYEAR=2010
DGENRE=
TTITLE0=Waterloo Lily
TTITLE1=Any Advance On Carpet? [incorporating ''Bossa Nochance'']
TTITLE2=C'thlu Thulu
TTITLE3=Memory Lain Hugh - Headloss
TTITLE4=The Dog, The Dog, He's At It Again
TTITLE5=L'Auberge Du Sanglier - A Hunting We Shall Go
TTITLE6=A Mirror For The Day
TTITLE7=For Richard
TTITLE8=Virgin On The Ridiculous
EXTD=
EXTT0=
EXTT1=
EXTT2=
EXTT3=
EXTT4=
EXTT5=
EXTT6=
EXTT7=
EXTT8=
PLAYORDER=
